<?xml version="1.0" standalone="no"?><!DOCTYPE svg PUBLIC "-//W3C//DTD SVG 1.1//EN" "http://www.w3.org/Graphics/SVG/1.1/DTD/svg11.dtd"><svg t="1629554872117" class="icon" viewBox="0 0 1024 1024" version="1.1" xmlns="http://www.w3.org/2000/svg" p-id="8748" width="250" height="250" data-spm-anchor-id="a313x.7781069.0.i7" xmlns:xlink="http://www.w3.org/1999/xlink"><defs><style type="text/css"></style></defs><path d="M70.272 62.784L142.656 881.92c2.112 23.552 18.56 43.392 41.344 49.792l204.736 57.28c80.192 22.4 164.992 22.4 245.12 0l205.824-57.536c22.784-6.4 39.232-26.24 41.344-49.792L953.6 62.848a56.896 56.896 0 0 0-56.64-61.952H126.912a56.896 56.896 0 0 0-56.64 61.888z m659.712 239.04H411.52a53.12 53.12 0 0 0-52.864 57.792l0.512 5.824c2.56 29.44 27.2 51.904 56.64 51.904h293.824a56.896 56.896 0 0 1 56.64 61.952l-21.76 245.312a56.896 56.896 0 0 1-41.344 49.728l-130.496 36.48a227.584 227.584 0 0 1-122.624 0L320 774.336a56.896 56.896 0 0 1-41.344-49.728L271.36 642.56a51.456 51.456 0 0 1 51.2-56h11.072c25.6 0 46.976 19.584 49.28 45.056l0.448 5.568c2.112 23.68 18.752 43.648 41.728 49.92 61.12 23.424 61.184 23.36 86.784 23.296 20.16 0 50.048-7.04 89.856-20.928a56.896 56.896 0 0 0 37.888-48.64l4.352-48.64a56.896 56.896 0 0 0-56.704-61.952H313.472a56.896 56.896 0 0 1-56.64-51.84L236.672 250.88a56.896 56.896 0 0 1 56.704-61.888h442.048a51.84 51.84 0 0 1 51.584 56.384l-0.384 4.48a56.896 56.896 0 0 1-56.64 51.904z" fill="#FF6D48" p-id="8749" data-spm-anchor-id="a313x.7781069.0.i6" class="selected"></path></svg>