<?xml version="1.0" standalone="no"?><!DOCTYPE svg PUBLIC "-//W3C//DTD SVG 1.1//EN" "http://www.w3.org/Graphics/SVG/1.1/DTD/svg11.dtd"><svg t="1629554769207" class="icon" viewBox="0 0 1024 1024" version="1.1" xmlns="http://www.w3.org/2000/svg" p-id="2265" width="300" height="300" xmlns:xlink="http://www.w3.org/1999/xlink"><defs><style type="text/css"></style></defs><path d="M102.4 102.4v819.2h819.2V102.4H102.4z m445.781333 638.976c0 79.872-46.762667 116.053333-115.029333 116.053333-61.44 0-97.28-31.744-115.370667-70.314666l62.805334-37.888c11.946667 21.504 23.210667 39.594667 49.493333 39.594666 25.258667 0 41.301333-9.898667 41.301333-48.469333v-261.802667h77.141334v262.826667z m181.930667 116.053333c-71.338667 0-117.76-34.133333-140.288-78.506666l62.805333-36.181334c16.384 26.965333 37.888 46.762667 75.776 46.762667 31.744 0 52.224-16.042667 52.224-37.888 0-26.282667-20.821333-35.84-55.978666-51.2l-19.114667-8.192c-55.637333-23.552-92.501333-53.248-92.501333-116.053333 0-57.685333 44.032-101.717333 112.64-101.717334 48.810667 0 83.968 17.066667 109.568 61.44l-60.074667 38.570667c-13.312-23.552-27.648-33.109333-49.493333-33.109333-22.528 0-36.864 14.336-36.864 33.109333 0 23.210667 14.336 32.426667 47.445333 46.762667l19.114667 8.192c65.536 27.989333 102.4 56.661333 102.4 120.832 0 69.290667-54.272 107.178667-127.658667 107.178666z" fill="#F7DF1E" p-id="2266"></path><path d="M471.381333 740.352c0 38.570667-16.042667 48.469333-41.301333 48.469333-26.282667 0-37.546667-18.090667-49.493333-39.594666l-62.805334 37.888c18.090667 38.570667 53.930667 70.314667 115.370667 70.314666 68.266667 0 115.029333-36.181333 115.029333-116.053333v-262.826667H471.04v261.802667zM755.370667 629.077333l-19.114667-8.192c-33.109333-14.336-47.445333-23.552-47.445333-46.762666 0-18.773333 14.336-33.109333 36.864-33.109334 21.845333 0 36.181333 9.216 49.493333 33.109334l60.074667-38.570667c-25.258667-44.373333-60.416-61.44-109.568-61.44-68.608 0-112.64 44.032-112.64 101.717333 0 62.805333 36.864 92.501333 92.501333 116.053334l19.114667 8.192c35.157333 15.36 55.978667 24.576 55.978666 51.2 0 21.845333-20.48 37.888-52.224 37.888-37.888 0-59.392-19.797333-75.776-46.762667l-62.805333 36.181333c22.528 44.714667 68.608 78.506667 140.288 78.506667 73.045333 0 127.658667-37.888 127.658667-107.178667 0-64.170667-36.864-92.842667-102.4-120.832zM317.781333 787.114667z" p-id="2267"></path></svg>