<?xml version="1.0" standalone="no"?><!DOCTYPE svg PUBLIC "-//W3C//DTD SVG 1.1//EN" "http://www.w3.org/Graphics/SVG/1.1/DTD/svg11.dtd"><svg t="1629555212990" class="icon" viewBox="0 0 1024 1024" version="1.1" xmlns="http://www.w3.org/2000/svg" p-id="1874" xmlns:xlink="http://www.w3.org/1999/xlink" width="250" height="250"><defs><style type="text/css"></style></defs><path d="M512 1024C229.23 1024 0 794.77 0 512S229.23 0 512 0s512 229.23 512 512-229.23 512-512 512z" fill="#D8232C" p-id="1875"></path><path d="M768.07 548.41c0-130.46-105.98-226.93-268.96-236.23-157.71-8.99-272.98 92.46-272.98 236.23 0 85.27 40.55 155.43 106.46 196.66v65.4c0 13.44 10.89 24.33 24.33 24.33h55.9c13.44 0 24.33-10.89 24.33-24.33v-28.36c19.75 2.75 40.46 3.66 61.97 2.52 24.86-1.31 48.51-4.8 70.74-10.25v36.09c0 13.44 10.89 24.33 24.33 24.33h55.9c13.44 0 24.33-10.89 24.33-24.33v-83.19c58.8-42.49 93.65-105.44 93.65-178.87zM434.18 385.5c-7.81 2.75-16.38-1.35-19.13-9.16-2.76-7.81 1.35-16.38 9.16-19.13 53.02-18.69 120.27-15.59 171.34 7.91 7.53 3.46 10.82 12.37 7.36 19.9-2.63 5.72-8.4 8.99-14.32 8.72-1.88-0.09-3.76-0.53-5.57-1.36-43.68-20.11-103.49-22.87-148.84-6.88z" fill="#FFE9E1" p-id="1876"></path><path d="M731.58 509c1.99-0.81 3.76-1.47 5.63-2.15 1.85-0.67 3.7-1.32 5.56-1.94 3.72-1.25 7.46-2.41 11.23-3.48 7.55-2.13 15.2-3.96 23.02-5.31 7.82-1.33 15.81-2.18 24-2.03 4.1 0.09 8.25 0.43 12.42 1.19 4.17 0.77 8.37 1.97 12.43 3.84 4.05 1.87 7.95 4.48 11.19 7.82 3.25 3.34 5.78 7.35 7.45 11.53 1.7 4.19 2.61 8.51 3.04 12.74 0.21 2.15 0.32 4.15 0.29 6.41-0.06 2.22-0.24 4.46-0.66 6.71-0.81 4.48-2.61 8.96-5.39 12.81-2.76 3.87-6.5 7-10.63 9.16-8.3 4.34-18.04 4.92-26.73 2.13a34.71 34.71 0 0 1-11.96-6.68c-3.5-3.01-6.37-6.75-8.35-10.83-2.02-4.08-3.2-8.44-3.72-12.77-0.5-4.33-0.43-8.6 0.11-12.78 0.51-4.19 1.56-8.38 3.15-12.4 1.62-4.01 3.84-7.83 6.61-11.19 1.4-1.67 2.9-3.25 4.53-4.68 1.63-1.43 3.36-2.72 5.15-3.89 1.81-1.14 3.68-2.16 5.59-3.06a59.01 59.01 0 0 1 5.85-2.29c7.94-2.56 16.17-3.25 24.17-2.78 8.01 0.49 15.84 2.13 23.32 4.63 3.74 1.26 7.4 2.72 10.95 4.4 3.54 1.71 6.97 3.61 10.28 5.7 6.62 4.17 12.72 9.14 18.06 14.79 0.68 0.72 0.64 1.84-0.07 2.52-0.67 0.64-1.71 0.64-2.4 0.04l-0.02-0.01c-5.6-4.95-11.72-9.25-18.26-12.74-6.54-3.49-13.45-6.22-20.53-8.17-7.09-1.92-14.38-2.99-21.6-3.02-7.2 0.01-14.36 1.02-20.84 3.45-6.47 2.41-12.15 6.34-16.09 11.54-3.97 5.19-6.13 11.61-6.69 18.37-0.65 6.8 0.2 13.56 3.01 19.03 1.41 2.73 3.25 5.16 5.53 7.12a22.62 22.62 0 0 0 7.86 4.39c5.78 1.9 12.42 1.5 17.66-1.23 5.28-2.71 8.78-7.73 9.82-13.74 0.26-1.5 0.41-3.06 0.4-4.65a45.48 45.48 0 0 0-0.34-4.99c-0.41-3.33-1.18-6.52-2.42-9.36-1.22-2.86-2.91-5.36-5.01-7.44-2.12-2.08-4.68-3.74-7.56-5-5.79-2.53-12.71-3.43-19.73-3.42-7.05 0.02-14.26 0.92-21.42 2.29-7.17 1.37-14.31 3.27-21.35 5.52a244.86 244.86 0 0 0-15.66 5.59c-1.68 0.67-3.46 1.4-4.98 2.07l-0.06 0.03a7.501 7.501 0 0 1-9.9-3.82 7.501 7.501 0 0 1 3.82-9.9c0.08 0 0.18-0.04 0.24-0.07zM340.4 380.64a54.24 54.24 0 0 1-13.6 2.25l-43.33-114.35c36.14-17.19 88.14 9.04 98.23 43.1 10.11 34.03-9.97 59.7-41.3 69z" fill="#FFE9E1" p-id="1877"></path><path d="M332.58 454.3m-21.48 0a21.48 21.48 0 1 0 42.96 0 21.48 21.48 0 1 0-42.96 0Z" fill="#47352F" p-id="1878"></path><path d="M513.58 245.37m-108.55 0a108.55 108.55 0 1 0 217.1 0 108.55 108.55 0 1 0-217.1 0Z" fill="#FFDF78" p-id="1879"></path><path d="M513.58 245.37m-87.12 0a87.12 87.12 0 1 0 174.24 0 87.12 87.12 0 1 0-174.24 0Z" fill="#FFC81A" p-id="1880"></path><path d="M513.58 176c45.12 0 82.22 34.3 86.67 78.24 0.3-2.92 0.45-5.88 0.45-8.87 0-48.11-39-87.12-87.12-87.12s-87.11 39-87.11 87.12c0 3 0.15 5.96 0.45 8.87 4.44-43.94 41.54-78.24 86.66-78.24z" fill="#ED9E00" p-id="1881"></path><path d="M484.44 708.6c-143.38 0-215.99-53.3-243.78-76.04 17.31 47.1 49.31 85.85 91.92 112.51v65.4c0 13.44 10.89 24.33 24.33 24.33h55.9c13.44 0 24.33-10.89 24.33-24.33v-28.36c19.75 2.75 40.46 3.66 61.97 2.52 24.86-1.31 48.51-4.8 70.74-10.25v36.09c0 13.44 10.89 24.33 24.33 24.33h55.9c13.44 0 24.33-10.89 24.33-24.33v-83.19c57.46-41.52 92.03-102.56 93.59-173.82-42.37 97.16-154.96 155.14-283.56 155.14z" fill="#FCDAD0" p-id="1882"></path><path d="M264.59 598.18h-59.57c-9.59 0-17.36-7.77-17.36-17.36v-87.67c0-9.59 7.77-17.36 17.36-17.36h59.57v122.39z" fill="#FFE9E1" p-id="1883"></path></svg>