<?xml version="1.0" standalone="no"?><!DOCTYPE svg PUBLIC "-//W3C//DTD SVG 1.1//EN" "http://www.w3.org/Graphics/SVG/1.1/DTD/svg11.dtd"><svg t="1629554566983" class="icon" viewBox="0 0 1024 1024" version="1.1" xmlns="http://www.w3.org/2000/svg" p-id="1416" xmlns:xlink="http://www.w3.org/1999/xlink" width="200" height="200"><defs><style type="text/css"></style></defs><path d="M707.047619 121.904762l24.380952 48.761905v365.714285h146.285715V170.666667l26.404571-48.761905L877.714286 0h-146.285715z" fill="#90A4AE" p-id="1417"></path><path d="M804.571429 146.285714c71.314286 0 73.142857-146.285714 73.142857-146.285714h-146.285715s1.828571 146.285714 73.142858 146.285714z" fill="#B0BEC5" p-id="1418"></path><path d="M704.853333 536.380952h199.436191l44.446476 209.408a97.52381 97.52381 0 0 1 2.121143 20.260572V926.47619a97.52381 97.52381 0 0 1-97.52381 97.52381h-97.523809a97.52381 97.52381 0 0 1-97.52381-97.52381v-160.426666a97.328762 97.328762 0 0 1 2.121143-20.236191L704.853333 536.380952z" fill="#3F51B5" p-id="1419"></path><path d="M707.047619 438.857143h195.047619a24.380952 24.380952 0 0 1 24.380952 24.380952v48.761905a24.380952 24.380952 0 0 1-24.380952 24.380952h-195.047619a24.380952 24.380952 0 0 1-24.380952-24.380952v-48.761905a24.380952 24.380952 0 0 1 24.380952-24.380952z" fill="#5C6BC0" p-id="1420"></path><path d="M341.333333 1024a146.456381 146.456381 0 0 1-146.285714-146.285714V337.261714h292.571429V877.714286a146.456381 146.456381 0 0 1-146.285715 146.285714z m0-219.428571a73.142857 73.142857 0 1 0 73.142857 73.142857 73.142857 73.142857 0 0 0-73.142857-73.142857z" fill="#FF9800" p-id="1421"></path><path d="M487.619048 396.263619H195.047619v51.760762L487.619048 548.571429z" fill="#EF6C00" p-id="1422"></path><path d="M460.53181 23.088762v239.981714H222.134857V23.088762A267.897905 267.897905 0 0 0 73.142857 263.070476a203.50781 203.50781 0 0 0 171.641905 200.533334 603.599238 603.599238 0 0 0 96.548571 8.094476 600.795429 600.795429 0 0 0 96.548572-8.070096A203.483429 203.483429 0 0 0 609.52381 263.070476 267.897905 267.897905 0 0 0 460.53181 23.088762z" fill="#FF9800" p-id="1423"></path></svg>